PathFileType	4	(X/Y/Z)	s03c0203.trc
DataRate	CameraRate	NumFrames	NumMarkers	Units	OrigDataRate	OrigDataStartFrame	OrigNumFrames
200	200	5	50	mm	200	0	2000
Frame#	Time	racr			lacr			c7			jug			rlel			rdr			llel			ldr			s2			lic			ric			lasi			rasi			rpsi			lpsi			rgt			lgt			rth1			rth2			rth3			rth4			rlfc			rmfc			rsh1			rsh2			rsh3			rsh4			rlmal			rcal			rtoe			rmt5			rmt1			lth1			lth2			lth4			lth3			llfc			lmfc			lsh1			lsh2			lsh3			lsh4			llmal			lcal			ltoe			lmt1			lmt5			SBIKE			LBIKE			RBIKE			
		X1	Y1	Z1	X2	Y2	Z2	X3	Y3	Z3	X4	Y4	Z4	X5	Y5	Z5	X6	Y6	Z6	X7	Y7	Z7	X8	Y8	Z8	X9	Y9	Z9	X10	Y10	Z10	X11	Y11	Z11	X12	Y12	Z12	X13	Y13	Z13	X14	Y14	Z14	X15	Y15	Z15	X16	Y16	Z16	X17	Y17	Z17	X18	Y18	Z18	X19	Y19	Z19	X20	Y20	Z20	X21	Y21	Z21	X22	Y22	Z22	X23	Y23	Z23	X24	Y24	Z24	X25	Y25	Z25	X26	Y26	Z26	X27	Y27	Z27	X28	Y28	Z28	X29	Y29	Z29	X30	Y30	Z30	X31	Y31	Z31	X32	Y32	Z32	X33	Y33	Z33	X34	Y34	Z34	X35	Y35	Z35	X36	Y36	Z36	X37	Y37	Z37	X38	Y38	Z38	X39	Y39	Z39	X40	Y40	Z40	X41	Y41	Z41	X42	Y42	Z42	X43	Y43	Z43	X44	Y44	Z44	X45	Y45	Z45	X46	Y46	Z46	X47	Y47	Z47	X48	Y48	Z48	X49	Y49	Z49	X50	Y50	Z50	
0	0.0000	458.354764	1441.084315	-77.040789	452.069517	1464.737488	-389.646312	373.591928	1519.130335	-223.928718	425.640614	1353.705113	-228.984800	514.078960	1176.124849	17.856640	736.909586	985.512576	-23.174472	519.253715	1200.386496	-462.713505	728.995609	977.671132	-440.516920	-120.560272	1208.273908	-250.405188	70.976772	1214.722894	-428.165339	48.012278	1232.625415	-57.283927	85.071320	1137.933853	-389.605435	62.674415	1170.568887	-100.580041	-90.497149	1257.244852	-205.334007	-79.724117	1253.032745	-288.379433	-14.337949	1153.625972	-42.157725	1.261107	1107.108797	-445.599844	110.812220	1068.814201	-22.380975	199.805605	1069.025431	-20.177273	275.696662	1027.580652	-21.028773	209.876509	1101.662751	-34.360737	397.308767	965.869569	-40.006348	406.953501	954.444065	-167.930898	337.817346	810.594164	-26.207772	325.020811	724.280229	-43.978516	267.625659	656.456864	-50.625622	350.895667	715.223501	-70.382773	207.944952	538.336207	-76.651151	143.284390	489.514407	-119.126913	452.455867	498.487273	-120.046937	335.135583	475.028131	-49.634888	359.397728	493.348783	-164.257544	70.944386	964.618151	-473.970175	130.705709	901.857317	-479.078241	162.706637	919.233316	-474.267343	152.810859	814.822854	-470.932326	229.155314	708.085189	-458.759752	242.265200	698.269740	-334.986775	139.978729	557.351440	-471.147740	129.063686	475.893625	-450.028984	73.357175	404.034035	-435.503953	159.227438	465.953434	-426.913267	16.065756	291.693513	-405.979256	-52.356619	256.337096	-354.397265	251.535619	200.316390	-362.803404	158.835173	212.005267	-318.479464	127.701897	195.112066	-431.401492	-221.048783	943.155371	-236.699137	-14.171172	79.833893	-436.746810	-14.518569	80.586202	-36.818662	
1	0.0050	458.403079	1441.108888	-76.989392	452.087494	1464.731304	-389.656541	373.602785	1519.133839	-223.933378	425.673620	1353.666935	-228.934141	514.104003	1176.143651	17.919390	736.909159	985.502063	-23.137339	519.224113	1200.367603	-462.725524	728.975639	977.669873	-440.521711	-120.556248	1208.273659	-250.421423	71.025392	1214.687783	-428.143870	48.056975	1232.601345	-57.302287	85.071320	1137.933853	-389.605435	62.704801	1170.567984	-100.617393	-90.462756	1257.240336	-205.365064	-79.707633	1253.008117	-288.406802	-14.331566	1153.615976	-42.187210	1.254239	1107.115655	-445.612676	110.815155	1068.783327	-22.395340	199.811113	1069.010531	-20.178204	275.675529	1027.570253	-21.031661	209.884221	1101.660955	-34.340742	397.307095	965.861742	-39.977049	406.944474	954.437471	-167.946843	337.818184	810.598167	-26.211013	325.011568	724.285911	-43.970022	267.632555	656.468800	-50.613414	350.901195	715.228398	-70.388750	207.922982	538.351426	-76.640690	143.271739	489.544155	-119.119969	452.419770	498.511844	-120.042466	335.130179	475.027532	-49.641152	359.383204	493.360787	-164.271783	70.957354	964.616654	-473.989921	130.714940	901.863167	-479.079431	162.720815	919.220245	-474.276363	152.834395	814.805963	-470.938037	229.168859	708.085237	-458.745761	242.276730	698.263489	-334.966631	139.980157	557.351294	-471.142999	129.091726	475.895585	-450.020289	73.374676	404.025249	-435.503533	159.223623	465.949499	-426.909121	16.083245	291.676012	-405.973274	-52.344958	256.324909	-354.410375	251.553540	200.295870	-362.804944	159.368556	212.516911	-318.695451	127.721100	195.108805	-431.398974	-221.045377	943.155937	-236.696903	-14.172441	79.821722	-436.752983	-14.495807	80.569615	-36.831429	
2	0.0100	458.410278	1441.137110	-76.923998	452.087494	1464.731304	-389.656541	376.558249	1519.819545	-226.110438	425.718216	1353.658263	-228.919259	514.133761	1176.144845	17.962681	736.902327	985.478277	-23.103919	519.211364	1200.371622	-462.757903	728.960440	977.648875	-440.529776	-120.537304	1208.278154	-250.424135	71.082277	1214.664776	-428.135713	48.099617	1232.572152	-57.304720	85.050300	1137.877944	-389.543214	62.732785	1170.554904	-100.650921	-90.465246	1257.227921	-205.360504	-79.712578	1253.005581	-288.403229	-14.321697	1153.601914	-42.190276	1.254059	1107.104658	-445.614022	110.801085	1068.778455	-22.378374	199.806422	1069.001054	-20.156944	275.687521	1027.572960	-21.013306	209.901231	1101.648614	-34.326585	397.299413	965.864673	-39.984659	406.933311	954.441709	-167.927863	337.813429	810.604566	-26.204447	324.997069	724.283074	-43.966007	267.609985	656.479700	-50.616622	350.882478	715.232438	-70.387245	207.924626	538.368982	-76.651359	143.269299	489.532999	-119.145484	452.402238	498.540372	-120.035371	335.112211	475.027612	-49.642710	359.368310	493.379078	-164.278161	70.975851	964.612833	-473.971180	130.723828	901.840438	-479.074654	162.735279	919.211344	-474.251785	152.836739	814.791022	-470.920832	229.154300	708.069913	-458.738527	242.285757	698.239891	-334.963802	139.976010	557.333218	-471.136447	129.090874	475.877839	-450.026119	73.387516	404.010359	-435.491612	159.230315	465.941540	-426.923961	16.096038	291.653583	-405.977011	-52.332721	256.301293	-354.413637	251.565002	200.291770	-362.816100	159.406051	212.514974	-318.714884	127.730745	195.094245	-431.411181	-221.049122	943.162787	-236.710712	-14.181725	79.819247	-436.764028	-14.496050	80.579883	-36.836439	
3	0.0150	458.447983	1441.157271	-76.890340	452.112279	1464.726840	-389.681047	378.013933	1519.747637	-227.888238	423.270002	1353.607876	-230.287131	514.147746	1176.151306	18.008366	736.919136	985.459481	-23.056879	520.223486	1199.541468	-460.164877	728.941008	977.646060	-440.522934	-120.546117	1208.274402	-250.419992	70.971396	1213.861554	-426.187471	48.342690	1232.498053	-57.304913	82.858911	1135.833074	-385.094851	62.733372	1170.530129	-100.650255	-90.467284	1257.223802	-205.356413	-79.703662	1253.017244	-288.394785	-14.323743	1153.589465	-42.190014	1.269972	1107.104731	-445.604674	110.722555	1068.725833	-22.379599	199.801954	1069.006419	-20.157788	275.842534	1027.514539	-20.866588	209.096029	1102.031763	-35.062944	397.290957	965.859751	-39.966226	406.957437	954.442847	-167.922767	337.799686	810.596933	-26.165933	324.993127	724.272658	-43.947749	267.602205	656.480800	-50.616473	352.323744	716.171679	-69.985685	207.878956	538.377214	-76.652272	143.231872	489.561003	-119.119625	452.363866	498.575505	-120.038313	335.089346	475.063722	-49.649521	359.337831	493.395738	-164.259053	70.989871	964.601629	-473.960068	131.261358	901.016124	-477.356840	163.182897	918.691216	-473.159071	152.950556	814.726231	-470.964041	229.746316	707.363184	-457.359679	242.280747	698.214106	-334.936148	140.607414	556.435294	-469.590311	128.898847	473.732437	-446.915151	73.381801	403.989256	-435.501251	159.602372	465.015040	-425.114318	15.705468	292.396421	-407.086142	-52.321132	256.265872	-354.408526	251.599323	200.276566	-362.814903	159.614652	210.649413	-316.056478	128.409871	193.489796	-429.233481	-221.122131	943.170713	-237.124866	-14.178402	79.825110	-436.763665	-14.494530	80.572173	-36.833162	
4	0.0200	458.579727	1441.178748	-76.891245	452.155572	1464.729939	-389.659372	378.118122	1519.925062	-228.847225	423.185090	1354.146453	-231.907567	513.326476	1176.613911	17.145888	736.491438	985.713068	-23.572902	519.592679	1200.104349	-461.627942	728.629078	977.911990	-441.123046	-120.471266	1208.328488	-250.356559	71.205137	1214.362597	-427.347947	48.372752	1232.519388	-57.495494	83.789562	1136.828035	-386.626606	62.742276	1170.547495	-100.661694	-90.452287	1257.298395	-205.433341	-79.708191	1253.098695	-288.344262	-14.289100	1153.661482	-42.143814	1.126059	1107.153177	-445.731447	110.816169	1068.789796	-22.348635	199.895259	1069.048580	-20.136166	275.933445	1027.500974	-20.930834	209.199696	1102.062127	-35.066902	396.516044	966.245603	-41.347071	406.981464	954.402357	-168.611486	337.865066	810.634016	-26.122578	324.237155	724.632441	-44.752780	267.627300	656.478779	-50.570646	351.890795	716.487324	-70.675194	207.883295	538.374954	-76.644673	143.264581	489.517942	-119.100254	452.406070	498.551132	-120.083737	335.129140	475.109972	-49.600734	359.330673	493.397181	-164.218959	70.998324	964.603222	-473.943694	130.928065	901.522482	-478.352983	162.815238	919.200293	-474.166477	152.349558	815.402423	-472.057076	229.315480	707.795853	-458.155650	241.735315	698.491482	-335.609985	139.974118	557.273877	-471.107172	129.072621	475.684600	-450.509511	72.953714	404.709531	-436.459847	159.203184	465.434208	-425.923625	15.704744	292.359759	-407.083616	-52.256705	256.236915	-354.404005	251.238594	200.751624	-363.336175	159.612601	212.733447	-318.641095	128.000064	194.412080	-430.513800	-221.112168	943.170915	-237.114683	-14.536175	80.425591	-437.481243	-14.518913	80.567081	-36.953326	
